# xmcd
#
# Track frame offsets: 
#        150
#        12965
#        25186
#        38602
#        63630
#        74184
#        86861
#        99727
#        112622
#        124857
#        137472
#        149264
#        159152
#        169337
#        180220
#        192218
#        205319
#        216663
#        226230
#        238277
#        252217
#        261577
#        273121
#        286179
#        297453
#        310750
#        320771
#        333062
#
# Disc length: 4555 seconds
#
# Revision: 1
# Processed by: cddbd v1.5.2PL0 Copyright (c) Steve Scherf et al.
# Submitted via: ExactAudioCopyFreeDBPlugin 1.0
#
DISCID=a411c91c
DTITLE=Various Artist - The R&B Hits of 1955: Red Hot Rockin' Rhythm and Blues
DYEAR=1955
DGENRE=R&B
TTITLE0=Bobby Charles - Later Alligator
TTITLE1=Billy Boy Arnold - I Wish You Would
TTITLE2=Johnny Ace - Anymore
TTITLE3=Count Basie - Everyday (Part 1 and 2)
TTITLE4=The Cadillacs - Speedoo
TTITLE5=B.B. King - Ten Long Years
TTITLE6=Shirley And Lee - Feel So Good
TTITLE7=Bo Diddley - Pretty Thing
TTITLE8=Bobby Blue Bland - It's My Life, Baby
TTITLE9=Jay McShann's Orchestra - Hand's Off
TTITLE10=The El Dorados - At My Front Door
TTITLE11=Bill Haley And His Comets - (We're Gonna) Rock Around The Clo
TTITLE11=ck
TTITLE12=The Danderliers - Chop Chop Boom
TTITLE13=Chuck Berry - Thirty Days
TTITLE14=Howlin' Wolf - Don't Mess With My Baby
TTITLE15=The Marigolds - Rollin' Stone
TTITLE16=Muddy Waters - I Want You To Be Loved
TTITLE17=Boyd Bennett and His Rockets - Seventeen
TTITLE18=The Platters - The Great Pretender
TTITLE19=Jimmy Reed - You Don't Have To Go
TTITLE20=Nappy Brown - Pitter Patter
TTITLE21=The Lamplighters - Hug A Little, Kiss A Little
TTITLE22=Willie Mabon - The Seventh Son
TTITLE23=Clyde McPhatter - Seven Days
TTITLE24=The Turbans - When You Dance
TTITLE25=Jerry McCain - Courtin' In A Cadillac
TTITLE26=Big Joe Turner - Hide And Seek
TTITLE27=Peppermint Harris - Cadillac Funeral
EXTD=
EXTT0=
EXTT1=
EXTT2=
EXTT3=
EXTT4=
EXTT5=
EXTT6=
EXTT7=
EXTT8=
EXTT9=
EXTT10=
EXTT11=
EXTT12=
EXTT13=
EXTT14=
EXTT15=
EXTT16=
EXTT17=
EXTT18=
EXTT19=
EXTT20=
EXTT21=
EXTT22=
EXTT23=
EXTT24=
EXTT25=
EXTT26=
EXTT27=
PLAYORDER=
